<?xml version="1.0" encoding="utf-8"?>
<!-- Generator: Adobe Illustrator 21.0.0, SVG Export Plug-In . SVG Version: 6.00 Build 0)  -->
<svg version="1.1" id="Layer_1" xmlns="http://www.w3.org/2000/svg" xmlns:xlink="http://www.w3.org/1999/xlink" x="0px" y="0px"
	 viewBox="0 0 259.3 44.7" style="enable-background:new 0 0 259.3 44.7;" xml:space="preserve">
<style type="text/css">
	.st0{fill:#FFFFFF;}
</style>
<g>
	<path class="st0" d="M21.3,33.1c0.4,0,0.7,0.1,1,0.2c0.3,0.1,0.6,0.3,0.8,0.6c0.2,0.2,0.4,0.5,0.5,0.8c0.1,0.3,0.2,0.7,0.2,1
		c0,0.6-0.2,1.1-0.5,1.5c-0.3,0.4-0.8,0.8-1.3,0.9c-1.7,0.6-3.3,1-5,1c-3.8,0-6.9-1.2-9.5-3.7c-2.5-2.5-3.8-5.5-3.8-9.1
		s1.3-6.7,3.9-9.2c2.6-2.5,5.7-3.8,9.5-3.8c1.7,0,3.4,0.3,5,0.9c0.5,0.2,0.9,0.5,1.3,0.9c0.3,0.4,0.5,1,0.5,1.6c0,0.4-0.1,0.7-0.2,1
		c-0.1,0.3-0.3,0.6-0.6,0.8c-0.2,0.2-0.5,0.4-0.8,0.6c-0.3,0.1-0.7,0.2-1,0.2c-0.4,0-0.8-0.1-1.2-0.3c-0.9-0.4-1.9-0.6-3.1-0.6
		c-2.1,0-3.9,0.7-5.3,2.2c-1.4,1.5-2.1,3.4-2.1,5.6c0,2.3,0.7,4.2,2,5.6c1.4,1.4,3.2,2.2,5.3,2.2c1.2,0,2.4-0.3,3.3-0.8
		C20.6,33.2,20.9,33.1,21.3,33.1z"/>
	<path class="st0" d="M25.5,26.2c0-3.5,1.3-6.5,3.8-9c2.5-2.5,5.6-3.7,9.2-3.7c3.6,0,6.7,1.2,9.2,3.7c2.5,2.5,3.7,5.5,3.7,9.1
		c0,3.6-1.3,6.7-3.8,9.2c-2.5,2.4-5.6,3.7-9.3,3.7c-3.6,0-6.7-1.2-9.2-3.7C26.7,33,25.5,29.9,25.5,26.2z M31.2,26.3
		c0,2.4,0.6,4.4,1.9,5.8c1.3,1.4,3.1,2.1,5.3,2.1c2.2,0,4-0.7,5.3-2.1c1.3-1.4,2-3.3,2-5.7s-0.7-4.3-2-5.7c-1.3-1.4-3.1-2.1-5.3-2.1
		c-2.1,0-3.9,0.7-5.2,2.1C31.9,22.2,31.2,24,31.2,26.3z"/>
	<path class="st0" d="M76.4,17.2v11.1c0,1.9-0.2,3.6-0.7,5c-0.5,1.3-1.3,2.4-2.4,3.4c-1.9,1.6-4.3,2.5-7.2,2.5
		c-2.9,0-5.3-0.8-7.2-2.5c-0.6-0.5-1.1-1.1-1.5-1.6c-0.4-0.6-0.7-1.2-1-1.8c-0.5-1.1-0.7-2.8-0.7-5V17v0c0-0.4,0.1-0.7,0.2-1.1
		c0.1-0.3,0.3-0.6,0.6-0.9c0.2-0.2,0.5-0.4,0.9-0.6c0.3-0.1,0.7-0.2,1.1-0.2c0.4,0,0.7,0.1,1.1,0.2c0.3,0.1,0.6,0.3,0.9,0.6
		c0.2,0.2,0.4,0.5,0.6,0.9c0.1,0.3,0.2,0.7,0.2,1.1v0v11.1c0,4,1.6,6.1,4.8,6.1c3.2,0,4.8-2,4.8-6.1V17c0-0.4,0.1-0.7,0.2-1.1
		c0.1-0.3,0.3-0.6,0.6-0.9c0.2-0.3,0.5-0.5,0.9-0.6c0.3-0.1,0.7-0.2,1.1-0.2c0.4,0,0.8,0.1,1.1,0.2c0.3,0.1,0.6,0.4,0.9,0.6
		c0.2,0.3,0.4,0.6,0.6,0.9c0.1,0.3,0.2,0.7,0.2,1.1V17.2z"/>
	<path class="st0" d="M94.3,13.6c0.4,0,0.7,0.1,1,0.3c0.3,0.1,0.6,0.4,0.8,0.6c0.2,0.3,0.4,0.6,0.6,0.9c0.1,0.3,0.2,0.7,0.2,1
		c0,0.4-0.1,0.7-0.2,1.1c-0.1,0.3-0.3,0.6-0.6,0.9s-0.5,0.5-0.9,0.6c-0.3,0.1-0.7,0.2-1.1,0.2c-0.1,0-0.3,0-0.4,0
		c-0.1,0-0.3,0-0.4-0.1l0,0c-0.2,0-0.3-0.1-0.5-0.1c-0.1,0-0.3,0-0.5,0c-3.1,0-4.6,2.3-4.6,7v9.4c0,0.1,0,0.2,0,0.4
		c0,0.4-0.1,0.7-0.2,1.1c-0.1,0.3-0.4,0.6-0.6,0.9s-0.6,0.5-0.9,0.6c-0.3,0.1-0.7,0.2-1.1,0.2c-0.4,0-0.8-0.1-1.1-0.2
		c-0.3-0.1-0.6-0.4-0.9-0.6c-0.3-0.3-0.5-0.6-0.6-0.9c-0.1-0.3-0.2-0.7-0.2-1.1v0V17.1v0c0-0.4,0.1-0.8,0.2-1.1
		c0.1-0.3,0.4-0.6,0.6-0.9c0.3-0.3,0.6-0.5,0.9-0.6c0.3-0.1,0.7-0.2,1.1-0.2c0.7,0,1.3,0.2,1.8,0.6c0.5,0.4,0.8,0.9,1,1.6h0
		c1-1.1,1.9-1.8,2.7-2.2c0.8-0.4,1.8-0.6,2.9-0.6c0.1,0,0.3,0,0.5,0C94,13.6,94.1,13.6,94.3,13.6z"/>
	<path class="st0" d="M113.8,26.7c1,1.1,1.6,2.5,1.6,4.3c0,2.3-0.9,4.3-2.6,5.9c-1.7,1.5-3.7,2.2-6.1,2.2c-2.9,0-5.2-1-6.9-3.1h0
		c-0.4-0.4-0.6-1-0.6-1.7c0-0.4,0.1-0.7,0.2-1s0.3-0.6,0.6-0.8c0.2-0.2,0.5-0.4,0.8-0.6c0.3-0.1,0.7-0.2,1.1-0.2
		c0.4,0,0.8,0.1,1.2,0.3c0.4,0.2,0.7,0.5,0.9,0.8v0c0.1,0.2,0.3,0.4,0.4,0.4c0.3,0.3,0.7,0.5,1.1,0.7c0.4,0.2,0.8,0.2,1.3,0.2
		c1.9,0,2.8-0.9,2.8-2.6c0-1-0.7-1.9-2.2-2.8c-0.3-0.1-0.6-0.3-0.8-0.4s-0.6-0.3-0.8-0.4c-0.3-0.1-0.6-0.3-0.8-0.4
		c-0.3-0.1-0.6-0.3-0.9-0.4c-1.7-0.8-2.8-1.6-3.4-2.4c-0.8-1-1.3-2.3-1.3-3.9c0-2.1,0.7-3.9,2.1-5.2c1.5-1.4,3.3-2,5.4-2
		c0.9,0,1.8,0.1,2.6,0.4c0.8,0.3,1.5,0.7,2.1,1.3c0.3,0.2,0.5,0.5,0.7,0.9c0.2,0.4,0.3,0.7,0.3,1.2c0,0.4-0.1,0.7-0.2,1.1
		s-0.3,0.6-0.6,0.8c-0.2,0.2-0.5,0.4-0.8,0.6c-0.3,0.1-0.7,0.2-1,0.2s-0.7-0.1-1-0.2s-0.6-0.3-0.8-0.5c-0.5-0.4-1.1-0.7-1.7-0.7
		c-0.5,0-0.9,0.2-1.3,0.5c-0.3,0.3-0.5,0.8-0.5,1.3c0,1,1.1,1.9,3.2,2.8c1.5,0.6,2.7,1.2,3.7,1.8C112.5,25.6,113.3,26.2,113.8,26.7z
		"/>
	<path class="st0" d="M139.2,35.4c-0.8,0.9-1.7,1.6-2.6,2.2c-0.9,0.5-1.9,1-3,1.2c-1.1,0.3-2.2,0.4-3.5,0.4c-3.6,0-6.6-1.2-8.8-3.5
		c-2.2-2.3-3.3-5.4-3.3-9.3c0-3.8,1.1-7,3.2-9.3c2.1-2.3,5-3.5,8.6-3.5c1.8,0,3.4,0.3,4.8,0.8c1.4,0.6,2.6,1.4,3.7,2.6
		c2.1,2.3,3.1,5.4,3.1,9.4c0,0.4-0.2,0.7-0.5,1c-0.3,0.3-0.6,0.4-1,0.4h-14.7c-0.1,0-0.2,0-0.3,0c-0.1,0-0.3,0.1-0.4,0.1
		c-0.1,0.1-0.3,0.2-0.3,0.3c-0.1,0.2-0.1,0.4,0,0.7c0.3,1.4,0.9,2.6,1.8,3.6c1.2,1.2,2.6,1.7,4.4,1.7c1.4,0,2.6-0.3,3.5-1
		c0.2-0.2,0.5-0.4,0.8-0.7c0.3-0.3,0.6-0.6,0.9-1c0.2-0.3,0.6-0.6,1-0.8c0.4-0.2,0.8-0.3,1.2-0.3c0.4,0,0.7,0.1,1.1,0.2
		c0.3,0.1,0.6,0.3,0.9,0.6c0.2,0.2,0.4,0.5,0.6,0.9c0.1,0.3,0.2,0.7,0.2,1c0,0.6-0.2,1.2-0.6,1.7c0,0,0,0.1,0,0.1c0,0,0,0,0,0
		L139.2,35.4z M124.6,22c0,0.1-0.1,0.2-0.1,0.3c0,0.1,0,0.2,0,0.4c0,0.1,0.1,0.2,0.3,0.3c0.1,0.1,0.4,0.1,0.7,0.1h0.1h8.8
		c0.2,0,0.4-0.1,0.5-0.2c0.1-0.1,0.2-0.2,0.2-0.3c0-0.1,0.1-0.2,0-0.3c0-0.1,0-0.2,0-0.3c-0.9-2.3-2.7-3.4-5.3-3.4
		c-0.7,0-1.4,0.1-1.9,0.3c-0.6,0.2-1.1,0.5-1.6,0.9c-0.2,0.2-0.5,0.4-0.7,0.6c-0.2,0.2-0.4,0.5-0.6,0.8c-0.1,0.1-0.2,0.3-0.2,0.4
		C124.7,21.7,124.6,21.9,124.6,22z"/>
	<path class="st0" d="M155.6,14.4c0.3,0.1,0.6,0.3,0.8,0.6c0.2,0.2,0.4,0.5,0.6,0.8c0.1,0.3,0.2,0.7,0.2,1c0,0.4-0.1,0.7-0.2,1
		c-0.1,0.3-0.3,0.6-0.6,0.8c-0.2,0.2-0.5,0.4-0.8,0.5c-0.3,0.1-0.7,0.2-1,0.2h-0.1l-0.3,0c-0.4,0-0.7,0.2-1,0.4
		c-0.3,0.3-0.4,0.6-0.4,1v14.8v0c0,0.4-0.1,0.7-0.2,1.1c-0.1,0.3-0.3,0.6-0.6,0.9c-0.2,0.2-0.5,0.4-0.9,0.6
		c-0.3,0.1-0.7,0.2-1.1,0.2c-0.4,0-0.7-0.1-1.1-0.2c-0.3-0.1-0.6-0.3-0.9-0.6c-0.3-0.2-0.5-0.5-0.6-0.9c-0.1-0.3-0.2-0.7-0.2-1.1
		v-0.1V20.8c0-0.3-0.1-0.5-0.2-0.8c-0.2-0.2-0.4-0.4-0.6-0.5c-0.2,0-0.4-0.1-0.6-0.1c0,0-0.1,0-0.1,0s-0.1,0-0.1,0
		c-0.5-0.2-0.9-0.5-1.2-1c-0.3-0.4-0.4-1-0.4-1.5c0-0.6,0.1-1.1,0.4-1.5c0.3-0.4,0.7-0.8,1.2-1c0,0,0.1,0,0.1,0c0,0,0.1,0,0.1,0
		c0.2-0.1,0.4-0.1,0.6-0.1c0.2-0.1,0.4-0.3,0.6-0.5c0.2-0.2,0.2-0.5,0.2-0.8V8.1c0-0.4,0.1-0.7,0.2-1.1c0.1-0.3,0.3-0.6,0.6-0.9
		c0.2-0.2,0.5-0.4,0.9-0.6c0.3-0.1,0.7-0.2,1.1-0.2c0.4,0,0.7,0.1,1.1,0.2c0.3,0.1,0.6,0.3,0.9,0.6c0.3,0.2,0.5,0.5,0.6,0.9
		c0.1,0.3,0.2,0.7,0.2,1.1v4.7c0,0.4,0.1,0.7,0.4,1c0.3,0.3,0.6,0.4,1,0.4h0.3h0C155,14.2,155.3,14.3,155.6,14.4z"/>
	<path class="st0" d="M173.1,13.6c0.4,0,0.7,0.1,1,0.3c0.3,0.1,0.6,0.4,0.8,0.6c0.2,0.3,0.4,0.6,0.6,0.9c0.1,0.3,0.2,0.7,0.2,1
		c0,0.4-0.1,0.7-0.2,1.1c-0.1,0.3-0.3,0.6-0.6,0.9c-0.2,0.3-0.5,0.5-0.9,0.6c-0.3,0.1-0.7,0.2-1.1,0.2c-0.1,0-0.3,0-0.4,0
		c-0.1,0-0.3,0-0.4-0.1l0,0c-0.2,0-0.3-0.1-0.5-0.1c-0.1,0-0.3,0-0.5,0c-3.1,0-4.6,2.3-4.6,7v9.4c0,0.1,0,0.2,0,0.4
		c0,0.4-0.1,0.7-0.2,1.1c-0.1,0.3-0.4,0.6-0.6,0.9c-0.3,0.3-0.6,0.5-0.9,0.6c-0.3,0.1-0.7,0.2-1.1,0.2c-0.4,0-0.8-0.1-1.1-0.2
		c-0.3-0.1-0.6-0.4-0.9-0.6c-0.3-0.3-0.5-0.6-0.6-0.9c-0.1-0.3-0.2-0.7-0.2-1.1v0V17.1v0c0-0.4,0.1-0.8,0.2-1.1
		c0.1-0.3,0.4-0.6,0.6-0.9c0.3-0.3,0.6-0.5,0.9-0.6c0.3-0.1,0.7-0.2,1.1-0.2c0.7,0,1.3,0.2,1.8,0.6c0.5,0.4,0.8,0.9,1,1.6h0
		c1-1.1,1.9-1.8,2.7-2.2c0.8-0.4,1.8-0.6,2.9-0.6c0.1,0,0.3,0,0.5,0C172.8,13.6,173,13.6,173.1,13.6z"/>
	<path class="st0" d="M177.7,26.2c0-3.5,1.3-6.5,3.8-9c2.5-2.5,5.6-3.7,9.2-3.7c3.6,0,6.7,1.2,9.2,3.7c2.5,2.5,3.7,5.5,3.7,9.1
		c0,3.6-1.3,6.7-3.8,9.2c-2.5,2.4-5.6,3.7-9.3,3.7c-3.6,0-6.7-1.2-9.2-3.7C178.9,33,177.7,29.9,177.7,26.2z M183.4,26.3
		c0,2.4,0.6,4.4,1.9,5.8c1.3,1.4,3.1,2.1,5.3,2.1c2.2,0,4-0.7,5.3-2.1c1.3-1.4,2-3.3,2-5.7s-0.7-4.3-2-5.7c-1.3-1.4-3.1-2.1-5.3-2.1
		c-2.1,0-3.9,0.7-5.2,2.1C184.1,22.2,183.4,24,183.4,26.3z"/>
</g>
<circle class="st0" cx="217.9" cy="33.8" r="5.5"/>
<circle class="st0" cx="235.1" cy="33.8" r="5.5"/>
<g>
	<path class="st0" d="M251.4,30.7c1.7,0,3.1,1.4,3.1,3.1s-1.4,3.1-3.1,3.1s-3.1-1.4-3.1-3.1S249.7,30.7,251.4,30.7 M251.4,28.3
		c-3,0-5.5,2.4-5.5,5.5c0,3,2.4,5.5,5.5,5.5s5.5-2.4,5.5-5.5C256.9,30.8,254.4,28.3,251.4,28.3L251.4,28.3z"/>
</g>
</svg>
